<?xml version="1.0" standalone="no"?>
<!DOCTYPE svg PUBLIC "-//W3C//DTD SVG 20010904//EN"
 "http://www.w3.org/TR/2001/REC-SVG-20010904/DTD/svg10.dtd">
<svg version="1.0" xmlns="http://www.w3.org/2000/svg"
 width="960.000000pt" height="1280.000000pt" viewBox="0 0 960.000000 1280.000000"
 preserveAspectRatio="xMidYMid meet">
<metadata>
Created by potrace 1.16, written by Peter Selinger 2001-2019
</metadata>
<g transform="translate(0.000000,1280.000000) scale(0.100000,-0.100000)"
fill="#000000" stroke="none">
<path d="M4651 9779 c-508 -53 -1038 -314 -1391 -685 -603 -632 -794 -1547
-495 -2361 196 -533 611 -998 1110 -1244 l120 -59 75 24 c276 89 632 132 1010
122 249 -6 364 -18 575 -61 72 -15 153 -32 181 -38 51 -10 53 -9 140 38 586
316 1017 892 1148 1535 36 177 46 281 46 472 0 262 -34 471 -115 715 -40 121
-124 318 -131 310 -2 -2 10 -37 27 -78 140 -342 168 -793 74 -1165 -86 -341
-257 -638 -509 -889 -276 -275 -582 -438 -990 -527 -90 -20 -130 -22 -356 -22
-274 0 -337 7 -525 61 -532 152 -964 517 -1206 1018 -256 529 -251 1156 12
1680 286 569 820 953 1454 1046 143 21 435 16 579 -10 155 -28 294 -68 429
-125 59 -24 107 -42 107 -40 0 3 -60 34 -132 69 -235 113 -505 189 -757 215
-120 12 -359 11 -480 -1z"/>
<path d="M5022 9528 c-6 -7 -21 -38 -35 -68 -48 -108 -167 -241 -283 -315 -95
-61 -151 -84 -326 -136 -296 -87 -439 -172 -507 -299 -43 -80 -59 -143 -67
-258 -6 -73 -11 -95 -23 -99 -9 -3 -53 -23 -98 -45 -154 -75 -272 -241 -329
-463 -31 -122 -28 -187 16 -325 70 -221 196 -371 369 -436 l56 -21 7 -89 c19
-220 76 -326 230 -426 94 -62 143 -82 337 -137 75 -22 171 -55 213 -74 190
-87 336 -228 411 -398 42 -97 66 -91 124 30 32 67 61 108 118 170 129 136 266
213 496 276 217 60 324 111 415 197 90 85 131 191 149 386 5 55 11 72 22 72
41 0 163 72 224 133 101 100 158 210 205 396 22 86 24 103 14 161 -48 285
-193 498 -391 575 l-65 25 -12 109 c-20 178 -64 279 -154 351 -104 83 -213
130 -448 195 -283 78 -491 239 -590 459 -31 67 -54 83 -78 54z m68 -215 c72
-116 214 -239 359 -313 83 -41 115 -53 286 -101 77 -22 181 -60 230 -84 183
-89 236 -180 251 -434 l7 -119 47 -6 c126 -17 258 -126 329 -270 46 -92 81
-211 81 -272 0 -64 -37 -191 -82 -282 -70 -142 -210 -256 -331 -269 l-45 -5
-6 -112 c-12 -205 -37 -277 -126 -360 -61 -57 -179 -115 -311 -151 -285 -79
-385 -126 -538 -254 -56 -48 -157 -170 -172 -208 -5 -13 -12 -23 -17 -23 -4 0
-32 34 -61 75 -102 142 -242 253 -404 322 -44 19 -146 52 -226 74 -189 52
-297 104 -372 179 -76 75 -98 144 -108 324 l-6 129 -62 13 c-179 36 -319 198
-382 438 -26 101 -26 111 4 225 35 129 85 222 165 302 74 75 127 105 214 123
l61 13 2 84 c10 344 97 439 503 554 162 45 282 95 370 154 83 56 228 203 260
264 14 26 29 47 35 47 5 0 26 -26 45 -57z"/>
<path d="M5331 8691 c-8 -14 -8 -35 -1 -68 5 -26 16 -87 24 -135 l13 -88 -32
-19 c-41 -24 -79 -99 -73 -146 4 -32 2 -35 -28 -41 -46 -8 -92 4 -109 29 -19
30 -41 147 -56 297 -7 69 -15 129 -19 133 -17 20 -26 -52 -18 -141 10 -99 -1
-183 -27 -218 -14 -18 -14 -18 -15 4 0 38 -47 117 -107 182 -58 63 -150 133
-164 125 -13 -9 -20 -75 -10 -94 12 -22 62 -42 89 -35 37 10 182 -161 182
-215 0 -17 -98 -97 -161 -131 -73 -39 -61 -50 25 -25 100 29 168 98 198 200
l11 40 17 -72 c22 -92 40 -119 90 -134 34 -10 49 -9 98 5 36 12 84 17 131 16
92 -2 127 11 141 56 17 50 9 76 -30 101 -70 45 -82 56 -95 87 -20 47 -39 200
-27 223 7 13 3 27 -14 51 -22 31 -23 32 -33 13z"/>
<path d="M4546 8622 c-4 -10 3 -76 14 -148 12 -71 26 -171 32 -221 11 -86 10
-94 -8 -114 -27 -31 -76 -49 -133 -49 -40 0 -54 5 -81 30 -30 28 -32 33 -28
87 2 32 8 67 12 78 4 11 -2 6 -13 -12 -46 -68 -34 -181 23 -218 88 -58 239 -3
261 93 3 16 -2 87 -11 158 -10 71 -19 163 -19 204 -3 96 -33 165 -49 112z"/>
<path d="M4050 7919 c-99 -47 -100 -58 -7 -108 34 -19 130 -71 212 -116 607
-332 770 -418 794 -418 14 1 143 65 286 143 143 78 287 157 320 175 33 18 121
65 195 105 211 114 270 150 270 164 0 17 -30 36 -103 66 l-57 24 -43 -22 c-23
-12 -89 -48 -147 -80 -58 -32 -224 -125 -370 -206 -208 -116 -274 -157 -306
-193 -45 -51 -53 -50 -98 4 -15 18 -53 47 -84 66 -141 84 -770 427 -783 427
-8 0 -43 -14 -79 -31z"/>
<path d="M3918 7809 c-30 -17 -23 -64 15 -91 29 -21 198 -150 239 -183 61 -49
93 -54 43 -6 -14 13 -24 26 -21 28 5 5 334 -163 546 -278 75 -41 148 -80 163
-88 15 -8 26 -19 24 -24 -1 -4 -34 -26 -72 -46 -39 -21 -122 -67 -185 -102
-64 -35 -132 -73 -153 -84 -20 -11 -37 -23 -37 -27 0 -14 51 -21 111 -15 50 4
82 17 197 80 75 41 165 89 199 107 l63 32 195 -106 c191 -105 196 -107 272
-112 43 -2 85 0 93 5 18 12 21 10 -70 58 -192 101 -380 206 -380 212 0 4 28
21 63 39 34 17 85 44 112 60 58 33 613 336 730 398 111 60 140 84 131 112 -4
12 -16 27 -27 32 -21 12 -37 5 -199 -85 -299 -166 -916 -498 -925 -498 -8 1
-270 142 -575 310 -30 17 -149 81 -265 143 -115 62 -219 119 -230 127 -23 15
-34 16 -57 2z"/>
<path d="M4082 5310 c7 -71 18 -80 99 -80 l69 0 0 45 c0 45 0 45 -35 45 -28 0
-35 4 -35 20 0 17 -7 20 -51 20 l-52 0 5 -50z"/>
<path d="M4570 5295 l0 -65 -89 0 c-68 0 -93 -4 -105 -16 -14 -13 -16 -50 -16
-245 l0 -229 80 0 c74 0 81 2 96 25 12 19 15 41 12 91 -5 74 -20 94 -70 94
l-29 0 3 93 3 92 55 0 55 0 3 -197 2 -198 45 0 44 0 3 178 c2 97 2 237 0 310
l-3 132 -44 0 -45 0 0 -65z"/>
<path d="M5000 5212 c0 -179 5 -192 81 -192 l49 0 0 -140 0 -140 75 0 75 0 0
45 c0 41 -2 45 -25 45 l-25 0 0 265 0 265 -50 0 -50 0 0 -125 c0 -104 -2 -125
-15 -125 -13 0 -15 21 -15 125 l0 125 -50 0 -50 0 0 -148z"/>
<path d="M5450 5295 l0 -65 -49 0 c-77 0 -82 -10 -79 -154 l3 -121 42 -3 42
-3 3 93 c2 75 6 93 18 93 13 0 15 -30 18 -197 l2 -198 45 0 45 0 0 310 0 310
-45 0 -45 0 0 -65z"/>
<path d="M5800 5295 l0 -65 -89 0 c-68 0 -93 -4 -105 -16 -14 -13 -16 -50 -16
-245 l0 -229 78 0 c102 0 112 10 112 108 0 62 -3 73 -22 86 -12 9 -35 16 -51
16 l-28 0 3 93 3 92 58 3 57 3 0 -201 0 -200 50 0 50 0 0 310 0 310 -50 0 -50
0 0 -65z"/>
<path d="M4099 5183 c-11 -12 -14 -63 -14 -227 l0 -211 48 -3 47 -3 0 185 c0
159 2 186 15 186 10 0 15 -10 15 -32 1 -18 2 -100 3 -183 l2 -150 48 -3 47 -3
0 208 c0 261 3 253 -114 253 -65 0 -87 -4 -97 -17z"/>
<path d="M4714 5076 c-3 -8 -4 -25 -2 -38 3 -23 5 -23 123 -23 l120 0 3 38 3
37 -121 0 c-95 0 -122 -3 -126 -14z"/>
<path d="M3285 4444 c-14 -14 -15 -40 -11 -198 3 -99 8 -232 11 -293 l6 -113
45 0 44 0 0 130 0 130 33 0 c18 0 43 7 55 16 21 14 22 21 22 168 0 105 -4 156
-12 164 -19 19 -173 16 -193 -4z"/>
<path d="M3670 4395 l0 -65 -43 0 c-23 0 -53 -7 -65 -16 -21 -14 -22 -22 -22
-154 0 -162 4 -170 81 -170 l49 0 0 -75 0 -75 45 0 45 0 0 40 c0 38 2 40 30
40 29 0 30 2 30 44 0 41 -2 45 -27 48 -17 2 -28 9 -28 18 0 11 14 16 50 18 78
5 85 17 85 139 0 126 -11 143 -90 143 l-50 0 0 65 0 65 -45 0 -45 0 0 -65z"/>
<path d="M3987 4442 c-11 -12 -17 -36 -17 -66 0 -29 -6 -53 -15 -62 -12 -13
-15 -52 -15 -225 0 -126 4 -218 10 -230 10 -17 23 -19 160 -19 l150 0 0 70 0
70 -44 0 c-39 0 -45 -3 -48 -22 -3 -21 -9 -23 -70 -26 l-68 -3 0 156 c0 85 4
155 9 155 13 0 31 57 31 96 l0 34 80 0 80 0 0 45 0 45 -113 0 c-98 0 -116 -3
-130 -18z"/>
<path d="M4319 4443 c-10 -12 -15 -61 -17 -189 -4 -215 -5 -214 118 -214 l80
0 0 -100 0 -100 45 0 46 0 -3 137 c-3 135 -3 138 -28 150 -25 12 -25 14 -30
163 -4 119 -8 153 -20 160 -8 5 -52 10 -96 10 -64 0 -85 -4 -95 -17z"/>
<path d="M4630 4415 l0 -44 63 -3 62 -3 5 -60 c5 -57 6 -60 38 -69 l32 -9 0
-193 0 -194 50 0 50 0 -2 243 -3 242 -37 3 -38 3 0 65 0 64 -110 0 -110 0 0
-45z"/>
<path d="M5200 4410 c0 -72 21 -90 106 -90 l65 0 -3 48 c-3 45 -4 47 -35 50
-25 2 -33 8 -33 23 0 16 -7 19 -50 19 l-50 0 0 -50z"/>
<path d="M5470 4403 c0 -77 16 -107 58 -111 l32 -3 0 -120 0 -119 45 0 45 0 0
125 c0 118 1 125 20 125 19 0 20 -7 20 -230 l0 -230 45 0 45 0 0 264 c0 319 8
299 -122 294 l-88 -3 0 33 c0 32 0 32 -50 32 l-50 0 0 -57z"/>
<path d="M5886 4444 c-14 -13 -16 -49 -16 -240 0 -217 -1 -224 -20 -224 -17 0
-20 -7 -20 -50 l0 -50 110 0 c103 0 110 -1 110 -20 0 -17 7 -20 50 -20 l50 0
0 50 c0 75 -20 90 -116 90 -47 0 -73 4 -69 10 3 6 30 10 59 10 73 0 76 8 76
233 0 231 2 227 -115 227 -63 0 -88 -4 -99 -16z"/>
<path d="M6322 4430 c-15 -26 -23 -30 -59 -30 -30 0 -49 -6 -63 -20 -18 -18
-20 -33 -20 -198 0 -226 -2 -222 115 -222 117 0 115 -4 115 227 0 115 4 183
10 183 6 0 10 -55 10 -145 0 -132 2 -147 20 -165 14 -14 33 -20 65 -20 l45 0
0 -100 0 -100 80 0 80 0 0 44 c0 43 -1 45 -32 48 l-33 3 -3 220 c-3 250 -1
245 -84 245 -40 0 -48 3 -48 18 0 33 -21 42 -102 42 -77 0 -79 -1 -96 -30z"/>
<path d="M5240 4293 c-37 -13 -40 -33 -40 -245 l0 -208 50 0 50 0 0 180 c0
153 2 180 15 180 13 0 15 -27 15 -180 l0 -180 51 0 50 0 -3 216 c-4 253 0 245
-107 243 -36 0 -73 -3 -81 -6z"/>
</g>
</svg>
